<svg width="61" height="65" viewBox="0 0 61 65" fill="none" xmlns="http://www.w3.org/2000/svg">
<path d="M45.4312 0.0325283C45.2717 -0.121846 39.5235 0.0934656 34.5214 4.79375C29.5194 9.48998 30.2889 14.8768 30.4015 15.015C30.5141 15.1531 37.5339 15.3684 42.0152 9.90435C46.4964 4.44032 45.5907 0.190965 45.4312 0.0325283M60.9817 47.6976C60.7565 47.3076 50.072 42.6845 51.0667 33.7958C52.0615 24.9071 58.9265 22.4655 59.0344 22.2015C59.1423 21.9374 56.233 18.9921 53.1501 17.5012C50.8862 16.451 48.3812 15.8489 45.816 15.7381C45.3092 15.7259 43.5496 15.3521 39.9317 16.2093C37.548 16.774 32.1752 18.6021 30.6971 18.6752C29.2144 18.7484 24.8035 16.5546 20.0595 15.9737C17.0236 15.4659 13.8046 16.5059 11.5007 17.3062C9.20139 18.1024 4.8281 20.3693 1.76868 26.394C-1.29075 32.4146 0.309348 41.9532 1.45429 44.9189C2.59923 47.8845 4.38702 52.7351 7.42768 56.2775C10.1305 60.275 13.7155 63.0497 15.2123 63.9922C16.7092 64.9347 20.9323 65.5603 23.8604 64.2644C26.2159 63.0131 30.4672 62.2941 32.1471 62.3469C33.8223 62.3997 37.1257 62.9725 40.5089 64.5366C43.1882 65.3369 45.7221 65.0038 48.2607 64.11C50.7993 63.2122 54.4734 59.8078 58.7622 52.9057C60.3889 49.6963 61.1287 47.9603 60.9817 47.6976" fill="white"/>
<path d="M45.4312 0.0325283C45.2717 -0.121846 39.5235 0.0934656 34.5214 4.79375C29.5194 9.48998 30.2889 14.8768 30.4015 15.015C30.5141 15.1531 37.5339 15.3684 42.0152 9.90435C46.4964 4.44032 45.5907 0.190965 45.4312 0.0325283M60.9817 47.6976C60.7565 47.3076 50.072 42.6845 51.0667 33.7958C52.0615 24.9071 58.9265 22.4655 59.0344 22.2015C59.1423 21.9374 56.233 18.9921 53.1501 17.5012C50.8862 16.451 48.3812 15.8489 45.816 15.7381C45.3092 15.7259 43.5496 15.3521 39.9317 16.2093C37.548 16.774 32.1752 18.6021 30.6971 18.6752C29.2144 18.7484 24.8035 16.5546 20.0595 15.9737C17.0236 15.4659 13.8046 16.5059 11.5007 17.3062C9.20139 18.1024 4.8281 20.3693 1.76868 26.394C-1.29075 32.4146 0.309348 41.9532 1.45429 44.9189C2.59923 47.8845 4.38702 52.7351 7.42768 56.2775C10.1305 60.275 13.7155 63.0497 15.2123 63.9922C16.7092 64.9347 20.9323 65.5603 23.8604 64.2644C26.2159 63.0131 30.4672 62.2941 32.1471 62.3469C33.8223 62.3997 37.1257 62.9725 40.5089 64.5366C43.1882 65.3369 45.7221 65.0038 48.2607 64.11C50.7993 63.2122 54.4734 59.8078 58.7622 52.9057C60.3889 49.6963 61.1287 47.9603 60.9817 47.6976" fill="white"/>
</svg>
