<svg width="61" height="61" viewBox="0 0 61 61" fill="none" xmlns="http://www.w3.org/2000/svg">
<path d="M58.8583 33.7991L47.7649 39.4366L37.8151 30.5584L47.8442 21.609L58.8583 27.2059C59.5084 27.5359 60.0492 28.015 60.4255 28.5942C60.8017 29.1734 61 29.8319 61 30.5025C61 31.173 60.8017 31.8315 60.4255 32.4107C60.0492 32.9899 59.5084 33.469 58.8583 33.7991ZM0.317036 2.34797C0.107953 2.80615 0.000269237 3.29651 0 3.79166V57.2108C0 57.7623 0.12738 58.2757 0.351004 58.7358L31.9272 30.5559L0.317036 2.34797ZM34.8712 27.9303L44.0935 19.7002L6.29826 0.495064C5.48784 0.0777979 4.54462 -0.082457 3.62044 0.0400982L34.8712 27.9303ZM34.8712 33.184L3.73367 60.9725C4.57721 61.064 5.46604 60.9318 6.29826 60.5073L44.0143 41.3429L34.8712 33.184Z" fill="white"/>
</svg>
