<svg width="510" height="247" viewBox="0 0 510 247" fill="none" xmlns="http://www.w3.org/2000/svg">
<path d="M98.3598 1.2681C87.9042 2.89278 83.1024 4.04359 74.1958 7.08985C52.9748 14.4009 33.3028 30.1061 23.4668 47.639C12.9338 66.1874 10.2231 89.4067 16.0318 110.934C18.2778 119.395 19.1297 121.426 24.3188 130.565C33.0705 146.27 48.7926 159.877 67.2254 167.797C77.2937 172.13 84.8837 174.093 98.747 175.988C105.253 176.868 136.619 176.462 141.731 175.379C143.667 174.973 147.85 174.16 151.025 173.551C164.578 170.843 184.793 164.142 187.348 161.434C187.968 160.825 188.123 148.775 188.045 120.005L187.813 79.4555L154.743 79.2524L121.594 79.1171V87.5789V96.0407L140.802 96.1761C164.578 96.3115 164.733 96.3115 165.508 96.9208C166.205 97.5977 166.747 139.433 166.05 145.323C165.663 149.384 165.508 149.587 162.797 150.806C160.319 151.889 152.884 154.191 145.216 156.289C143.977 156.628 140.492 157.304 137.471 157.711C105.098 162.314 78.3006 155.951 59.2482 139.095C49.6445 130.633 43.5261 121.629 39.9634 110.934C33.9999 92.9945 35.8586 71.8737 44.8427 55.8301C53.7493 39.8541 70.3233 26.7213 88.2915 21.3734C105.64 16.2286 126.241 16.2963 141.344 21.5088C151.102 24.8936 157.608 28.346 164.036 33.4231L168.141 36.6725L173.33 31.9338C176.196 29.3614 179.836 25.9767 181.462 24.4874L184.405 21.7796L182.624 20.0872C178.055 15.7548 158.383 5.32979 154.897 5.32979C154.433 5.32979 153.503 5.05901 152.729 4.72054C150.405 3.63742 142.428 1.94505 134.761 0.929631C124.847 -0.424264 108.506 -0.288874 98.3598 1.2681Z" fill="white"/>
<path d="M238.31 4.38244C238 4.65322 237.768 42.63 237.768 88.7301V172.536H293.143H348.597L348.364 163.871L348.132 155.274L303.986 154.936L259.84 154.597L259.453 79.4559L259.066 4.31474L248.92 4.11166C243.421 4.04397 238.62 4.17936 238.31 4.38244Z" fill="white"/>
<path d="M360.679 4.45013C360.369 4.65322 360.137 8.57951 360.137 13.1828C360.137 20.1553 360.292 21.5092 361.376 21.8477C362.073 22.1185 386.857 22.2538 416.52 22.2538C446.105 22.1862 470.424 22.3215 470.579 22.4569C470.811 22.5923 468.798 25.1647 466.319 28.0756C460.123 35.1835 460.665 34.5743 445.718 52.378C429.686 71.4679 419.385 83.653 417.449 85.8869C413.499 90.4224 375.084 135.981 363.467 149.926L358.588 155.748V164.142V172.536H428.679H498.77V163.736V154.936H442.697C411.795 154.936 386.392 154.732 386.237 154.394C386.005 154.123 393.672 144.646 403.198 133.273C412.802 121.9 423.567 108.971 427.285 104.503C431.002 100.035 434.41 96.0411 434.875 95.5672C435.262 95.1611 437.276 92.8594 439.212 90.4901C441.148 88.1208 445.718 82.7052 449.358 78.4405C452.921 74.1757 461.285 64.2246 467.791 56.4397C474.374 48.5871 481.964 39.4483 484.829 36.1313C487.618 32.7465 491.722 27.8725 493.968 25.2324L497.996 20.4261V13.2504C497.996 9.32415 497.763 5.66864 497.531 5.05939C497.066 4.11166 490.328 3.97627 429.144 3.97627C391.736 3.97627 360.911 4.17936 360.679 4.45013Z" fill="white"/>
<path d="M0 244.631V247H23.6993H47.3212L47.0889 244.766L46.8565 242.6L23.467 242.397L0 242.261V244.631Z" fill="white"/>
<path d="M463.454 243.21C463.222 243.751 463.144 244.767 463.299 245.444C463.532 246.594 465.003 246.662 486.766 246.662H510.001V244.631V242.6L486.921 242.397C467.327 242.262 463.841 242.397 463.454 243.21Z" fill="white"/>
<path d="M168.509 212.546C167.229 212.546 166.045 212.338 164.957 211.922C163.885 211.49 162.949 210.89 162.149 210.122C161.365 209.354 160.749 208.45 160.301 207.41C159.869 206.37 159.653 205.234 159.653 204.002C159.653 202.77 159.869 201.634 160.301 200.594C160.749 199.554 161.373 198.65 162.173 197.882C162.973 197.114 163.909 196.522 164.981 196.106C166.069 195.674 167.253 195.458 168.533 195.458C169.813 195.458 170.981 195.658 172.037 196.058C173.109 196.458 174.021 197.066 174.773 197.882L173.669 199.01C172.965 198.306 172.189 197.802 171.341 197.498C170.493 197.194 169.581 197.042 168.605 197.042C167.565 197.042 166.605 197.218 165.725 197.57C164.861 197.906 164.101 198.394 163.445 199.034C162.805 199.658 162.301 200.394 161.933 201.242C161.581 202.074 161.405 202.994 161.405 204.002C161.405 204.994 161.581 205.914 161.933 206.762C162.301 207.61 162.805 208.354 163.445 208.994C164.101 209.618 164.861 210.106 165.725 210.458C166.605 210.794 167.557 210.962 168.581 210.962C169.541 210.962 170.445 210.818 171.293 210.53C172.157 210.242 172.949 209.754 173.669 209.066L174.677 210.41C173.877 211.114 172.941 211.65 171.869 212.018C170.797 212.37 169.677 212.546 168.509 212.546ZM172.973 210.194V204.002H174.677V210.41L172.973 210.194ZM179.044 212.402V194.594H180.748V212.402H179.044ZM190.325 212.522C189.109 212.522 188.013 212.25 187.037 211.706C186.077 211.146 185.317 210.386 184.757 209.426C184.197 208.45 183.917 207.338 183.917 206.09C183.917 204.826 184.197 203.714 184.757 202.754C185.317 201.794 186.077 201.042 187.037 200.498C187.997 199.954 189.093 199.682 190.325 199.682C191.573 199.682 192.677 199.954 193.637 200.498C194.613 201.042 195.373 201.794 195.917 202.754C196.477 203.714 196.757 204.826 196.757 206.09C196.757 207.338 196.477 208.45 195.917 209.426C195.373 210.386 194.613 211.146 193.637 211.706C192.661 212.25 191.557 212.522 190.325 212.522ZM190.325 211.01C191.237 211.01 192.045 210.81 192.749 210.41C193.453 209.994 194.005 209.418 194.405 208.682C194.821 207.93 195.029 207.066 195.029 206.09C195.029 205.098 194.821 204.234 194.405 203.498C194.005 202.762 193.453 202.194 192.749 201.794C192.045 201.378 191.245 201.17 190.349 201.17C189.453 201.17 188.653 201.378 187.949 201.794C187.245 202.194 186.685 202.762 186.269 203.498C185.853 204.234 185.645 205.098 185.645 206.09C185.645 207.066 185.853 207.93 186.269 208.682C186.685 209.418 187.245 209.994 187.949 210.41C188.653 210.81 189.445 211.01 190.325 211.01ZM206.44 212.522C205.336 212.522 204.344 212.274 203.464 211.778C202.584 211.266 201.888 210.53 201.376 209.57C200.864 208.61 200.608 207.45 200.608 206.09C200.608 204.714 200.864 203.554 201.376 202.61C201.904 201.65 202.608 200.922 203.488 200.426C204.368 199.93 205.352 199.682 206.44 199.682C207.64 199.682 208.712 199.954 209.656 200.498C210.616 201.026 211.368 201.77 211.912 202.73C212.456 203.69 212.728 204.81 212.728 206.09C212.728 207.354 212.456 208.474 211.912 209.45C211.368 210.41 210.616 211.162 209.656 211.706C208.712 212.25 207.64 212.522 206.44 212.522ZM199.936 212.402V194.594H201.64V203.522L201.4 206.066L201.568 208.61V212.402H199.936ZM206.32 211.01C207.216 211.01 208.016 210.81 208.72 210.41C209.424 209.994 209.984 209.418 210.4 208.682C210.816 207.93 211.024 207.066 211.024 206.09C211.024 205.098 210.816 204.234 210.4 203.498C209.984 202.762 209.424 202.194 208.72 201.794C208.016 201.378 207.216 201.17 206.32 201.17C205.424 201.17 204.616 201.378 203.896 201.794C203.192 202.194 202.632 202.762 202.216 203.498C201.816 204.234 201.616 205.098 201.616 206.09C201.616 207.066 201.816 207.93 202.216 208.682C202.632 209.418 203.192 209.994 203.896 210.41C204.616 210.81 205.424 211.01 206.32 211.01ZM223.727 212.402V209.618L223.655 209.162V204.506C223.655 203.434 223.351 202.61 222.743 202.034C222.151 201.458 221.263 201.17 220.079 201.17C219.263 201.17 218.487 201.306 217.751 201.578C217.015 201.85 216.391 202.21 215.879 202.658L215.111 201.386C215.751 200.842 216.519 200.426 217.415 200.138C218.311 199.834 219.255 199.682 220.247 199.682C221.879 199.682 223.135 200.09 224.015 200.906C224.911 201.706 225.359 202.93 225.359 204.578V212.402H223.727ZM219.383 212.522C218.439 212.522 217.615 212.37 216.911 212.066C216.223 211.746 215.695 211.314 215.327 210.77C214.959 210.21 214.775 209.57 214.775 208.85C214.775 208.194 214.927 207.602 215.231 207.074C215.551 206.53 216.063 206.098 216.767 205.778C217.487 205.442 218.447 205.274 219.647 205.274H223.991V206.546H219.695C218.479 206.546 217.631 206.762 217.151 207.194C216.687 207.626 216.455 208.162 216.455 208.802C216.455 209.522 216.735 210.098 217.295 210.53C217.855 210.962 218.639 211.178 219.647 211.178C220.607 211.178 221.431 210.962 222.119 210.53C222.823 210.082 223.335 209.442 223.655 208.61L224.039 209.786C223.719 210.618 223.159 211.282 222.359 211.778C221.575 212.274 220.583 212.522 219.383 212.522ZM229.688 212.402V194.594H231.392V212.402H229.688ZM249.47 212.546C248.206 212.546 247.038 212.338 245.966 211.922C244.894 211.49 243.966 210.89 243.182 210.122C242.398 209.354 241.782 208.45 241.334 207.41C240.902 206.37 240.686 205.234 240.686 204.002C240.686 202.77 240.902 201.634 241.334 200.594C241.782 199.554 242.398 198.65 243.182 197.882C243.982 197.114 244.918 196.522 245.99 196.106C247.062 195.674 248.23 195.458 249.494 195.458C250.71 195.458 251.854 195.666 252.926 196.082C253.998 196.482 254.902 197.09 255.638 197.906L254.51 199.034C253.822 198.33 253.062 197.826 252.23 197.522C251.398 197.202 250.502 197.042 249.542 197.042C248.534 197.042 247.598 197.218 246.734 197.57C245.87 197.906 245.118 198.394 244.478 199.034C243.838 199.658 243.334 200.394 242.966 201.242C242.614 202.074 242.438 202.994 242.438 204.002C242.438 205.01 242.614 205.938 242.966 206.786C243.334 207.618 243.838 208.354 244.478 208.994C245.118 209.618 245.87 210.106 246.734 210.458C247.598 210.794 248.534 210.962 249.542 210.962C250.502 210.962 251.398 210.802 252.23 210.482C253.062 210.162 253.822 209.65 254.51 208.946L255.638 210.074C254.902 210.89 253.998 211.506 252.926 211.922C251.854 212.338 250.702 212.546 249.47 212.546ZM263.338 212.522C262.122 212.522 261.026 212.25 260.05 211.706C259.09 211.146 258.33 210.386 257.77 209.426C257.21 208.45 256.93 207.338 256.93 206.09C256.93 204.826 257.21 203.714 257.77 202.754C258.33 201.794 259.09 201.042 260.05 200.498C261.01 199.954 262.106 199.682 263.338 199.682C264.586 199.682 265.69 199.954 266.65 200.498C267.626 201.042 268.386 201.794 268.93 202.754C269.49 203.714 269.77 204.826 269.77 206.09C269.77 207.338 269.49 208.45 268.93 209.426C268.386 210.386 267.626 211.146 266.65 211.706C265.674 212.25 264.57 212.522 263.338 212.522ZM263.338 211.01C264.25 211.01 265.058 210.81 265.762 210.41C266.466 209.994 267.018 209.418 267.418 208.682C267.834 207.93 268.042 207.066 268.042 206.09C268.042 205.098 267.834 204.234 267.418 203.498C267.018 202.762 266.466 202.194 265.762 201.794C265.058 201.378 264.258 201.17 263.362 201.17C262.466 201.17 261.666 201.378 260.962 201.794C260.258 202.194 259.698 202.762 259.282 203.498C258.866 204.234 258.658 205.098 258.658 206.09C258.658 207.066 258.866 207.93 259.282 208.682C259.698 209.418 260.258 209.994 260.962 210.41C261.666 210.81 262.458 211.01 263.338 211.01ZM279.381 199.682C280.405 199.682 281.301 199.882 282.069 200.282C282.853 200.666 283.461 201.258 283.893 202.058C284.341 202.858 284.565 203.866 284.565 205.082V212.402H282.861V205.25C282.861 203.922 282.525 202.922 281.853 202.25C281.197 201.562 280.269 201.218 279.069 201.218C278.173 201.218 277.389 201.402 276.717 201.77C276.061 202.122 275.549 202.642 275.181 203.33C274.829 204.002 274.653 204.818 274.653 205.778V212.402H272.949V199.802H274.581V203.258L274.317 202.61C274.717 201.698 275.357 200.986 276.237 200.474C277.117 199.946 278.165 199.682 279.381 199.682ZM292.251 212.522C291.211 212.522 290.227 212.378 289.299 212.09C288.371 211.786 287.643 211.41 287.115 210.962L287.883 209.618C288.395 210.002 289.051 210.338 289.851 210.626C290.651 210.898 291.491 211.034 292.371 211.034C293.571 211.034 294.435 210.85 294.963 210.482C295.491 210.098 295.755 209.594 295.755 208.97C295.755 208.506 295.603 208.146 295.299 207.89C295.011 207.618 294.627 207.418 294.147 207.29C293.667 207.146 293.131 207.026 292.539 206.93C291.947 206.834 291.355 206.722 290.763 206.594C290.187 206.466 289.659 206.282 289.179 206.042C288.699 205.786 288.307 205.442 288.003 205.01C287.715 204.578 287.571 204.002 287.571 203.282C287.571 202.594 287.763 201.978 288.147 201.434C288.531 200.89 289.091 200.466 289.827 200.162C290.579 199.842 291.491 199.682 292.563 199.682C293.379 199.682 294.195 199.794 295.011 200.018C295.827 200.226 296.499 200.506 297.027 200.858L296.283 202.226C295.723 201.842 295.123 201.57 294.483 201.41C293.843 201.234 293.203 201.146 292.563 201.146C291.427 201.146 290.587 201.346 290.043 201.746C289.515 202.13 289.251 202.626 289.251 203.234C289.251 203.714 289.395 204.09 289.683 204.362C289.987 204.634 290.379 204.85 290.859 205.01C291.355 205.154 291.891 205.274 292.467 205.37C293.059 205.466 293.643 205.586 294.219 205.73C294.811 205.858 295.347 206.042 295.827 206.282C296.323 206.506 296.715 206.834 297.003 207.266C297.307 207.682 297.459 208.234 297.459 208.922C297.459 209.658 297.251 210.298 296.835 210.842C296.435 211.37 295.843 211.786 295.059 212.09C294.291 212.378 293.355 212.522 292.251 212.522ZM305.494 212.522C304.422 212.522 303.486 212.322 302.686 211.922C301.886 211.522 301.262 210.922 300.814 210.122C300.382 209.322 300.166 208.322 300.166 207.122V199.802H301.87V206.93C301.87 208.274 302.198 209.29 302.854 209.978C303.526 210.65 304.462 210.986 305.662 210.986C306.542 210.986 307.302 210.81 307.942 210.458C308.598 210.09 309.094 209.562 309.43 208.874C309.782 208.186 309.958 207.362 309.958 206.402V199.802H311.662V212.402H310.03V208.946L310.294 209.57C309.894 210.498 309.27 211.226 308.422 211.754C307.59 212.266 306.614 212.522 305.494 212.522ZM316.111 212.402V194.594H317.815V212.402H316.111ZM326.311 212.522C325.127 212.522 324.215 212.202 323.575 211.562C322.935 210.922 322.615 210.018 322.615 208.85V197.018H324.319V208.754C324.319 209.49 324.503 210.058 324.871 210.458C325.255 210.858 325.799 211.058 326.503 211.058C327.255 211.058 327.879 210.842 328.375 210.41L328.975 211.634C328.639 211.938 328.231 212.162 327.751 212.306C327.287 212.45 326.807 212.522 326.311 212.522ZM320.359 201.218V199.802H328.159V201.218H320.359ZM331.777 212.402V199.802H333.481V212.402H331.777ZM332.641 197.018C332.289 197.018 331.993 196.898 331.753 196.658C331.513 196.418 331.393 196.13 331.393 195.794C331.393 195.458 331.513 195.178 331.753 194.954C331.993 194.714 332.289 194.594 332.641 194.594C332.993 194.594 333.289 194.706 333.529 194.93C333.769 195.154 333.889 195.434 333.889 195.77C333.889 196.122 333.769 196.418 333.529 196.658C333.305 196.898 333.009 197.018 332.641 197.018ZM344.354 199.682C345.378 199.682 346.274 199.882 347.042 200.282C347.826 200.666 348.434 201.258 348.866 202.058C349.314 202.858 349.538 203.866 349.538 205.082V212.402H347.834V205.25C347.834 203.922 347.498 202.922 346.826 202.25C346.17 201.562 345.242 201.218 344.042 201.218C343.146 201.218 342.362 201.402 341.69 201.77C341.034 202.122 340.522 202.642 340.154 203.33C339.802 204.002 339.626 204.818 339.626 205.778V212.402H337.922V199.802H339.554V203.258L339.29 202.61C339.69 201.698 340.33 200.986 341.21 200.474C342.09 199.946 343.138 199.682 344.354 199.682ZM359.217 217.178C358.065 217.178 356.961 217.01 355.905 216.674C354.849 216.338 353.993 215.858 353.337 215.234L354.201 213.938C354.793 214.466 355.521 214.882 356.385 215.186C357.265 215.506 358.193 215.666 359.169 215.666C360.769 215.666 361.945 215.29 362.697 214.538C363.449 213.802 363.825 212.65 363.825 211.082V207.938L364.065 205.778L363.897 203.618V199.802H365.529V210.866C365.529 213.042 364.993 214.634 363.921 215.642C362.865 216.666 361.297 217.178 359.217 217.178ZM358.905 211.922C357.705 211.922 356.625 211.666 355.665 211.154C354.705 210.626 353.945 209.898 353.385 208.97C352.841 208.042 352.569 206.978 352.569 205.778C352.569 204.578 352.841 203.522 353.385 202.61C353.945 201.682 354.705 200.962 355.665 200.45C356.625 199.938 357.705 199.682 358.905 199.682C360.025 199.682 361.033 199.914 361.929 200.378C362.825 200.842 363.537 201.53 364.065 202.442C364.593 203.354 364.857 204.466 364.857 205.778C364.857 207.09 364.593 208.202 364.065 209.114C363.537 210.026 362.825 210.722 361.929 211.202C361.033 211.682 360.025 211.922 358.905 211.922ZM359.073 210.41C360.001 210.41 360.825 210.218 361.545 209.834C362.265 209.434 362.833 208.89 363.249 208.202C363.665 207.498 363.873 206.69 363.873 205.778C363.873 204.866 363.665 204.066 363.249 203.378C362.833 202.69 362.265 202.154 361.545 201.77C360.825 201.37 360.001 201.17 359.073 201.17C358.161 201.17 357.337 201.37 356.601 201.77C355.881 202.154 355.313 202.69 354.897 203.378C354.497 204.066 354.297 204.866 354.297 205.778C354.297 206.69 354.497 207.498 354.897 208.202C355.313 208.89 355.881 209.434 356.601 209.834C357.337 210.218 358.161 210.41 359.073 210.41Z" fill="white"/>
</svg>
