<svg width="518" height="255" viewBox="0 0 518 255" fill="none" xmlns="http://www.w3.org/2000/svg">
<g filter="url(#filter0_d_241_709)">
<path d="M88.5049 9.46894L77.8592 18.8653V22.4933V26.0849H40.9296H4L4.12379 83.2976C4.24757 121.899 4.45388 141.381 4.74272 143.086C5.23786 145.807 5.8568 148.963 6.26942 150.705C6.68204 152.337 9.4466 160.101 9.7767 160.5C9.94175 160.682 10.3131 161.625 10.6432 162.568C10.932 163.548 11.3447 164.31 11.5097 164.31C11.6748 164.31 11.8398 164.636 11.8398 165.035C11.8398 165.434 12.0461 165.761 12.2524 165.761C12.5 165.761 12.665 166.087 12.665 166.486C12.665 166.886 12.8714 167.212 13.0777 167.212C13.3252 167.212 13.4903 167.43 13.4903 167.684C13.4903 168.337 14.4806 170.114 14.8519 170.114C15.017 170.114 15.1408 170.441 15.1408 170.84C15.1408 171.239 15.3058 171.566 15.4709 171.566C15.6772 171.566 16.0485 172.146 16.3786 172.835C16.7087 173.525 17.0801 174.105 17.2864 174.105C17.4515 174.105 17.6165 174.359 17.6165 174.649C17.6165 174.94 17.7403 175.194 17.9466 175.194C18.1117 175.194 18.483 175.629 18.7306 176.173C19.0194 176.754 19.8034 177.769 20.5049 178.459C21.165 179.148 21.7427 179.874 21.7427 180.019C21.7427 180.164 22.1553 180.672 22.6917 181.143C23.1869 181.579 24.2597 182.667 25.0437 183.574C26.6117 185.315 33.9563 191.882 36.0194 193.333C36.7209 193.841 37.8762 194.639 38.6602 195.147C39.4029 195.655 40.2694 196.272 40.5583 196.49C40.8471 196.744 41.2597 196.961 41.5073 196.961C41.7549 196.961 41.9612 197.106 41.9612 197.324C41.9612 197.505 42.25 197.687 42.5801 197.687C42.9102 197.687 43.199 197.832 43.199 197.977C43.199 198.158 43.6942 198.521 44.3544 198.811C44.9733 199.102 45.8398 199.61 46.2524 199.936C46.7063 200.299 47.3252 200.589 47.6141 200.589C47.9029 200.589 48.1505 200.734 48.1505 200.952C48.1505 201.133 48.5218 201.315 48.9345 201.315C49.3884 201.315 49.801 201.46 49.8835 201.641C50.0485 202.04 60.983 206.757 61.7257 206.757C61.9733 206.757 63.0049 207.083 63.9126 207.482C64.8617 207.881 66.0583 208.208 66.5534 208.208C67.0898 208.208 67.585 208.353 67.7087 208.534C67.8325 208.716 68.4515 208.933 69.0704 209.042C69.7306 209.151 71.051 209.441 72.0825 209.659C75.2185 210.348 77.983 210.784 80.335 211.001C81.5728 211.074 82.7694 211.328 82.9757 211.509C83.2233 211.691 86.6481 211.836 90.6505 211.836C95.767 211.836 98.0777 211.981 98.4078 212.271C98.7791 212.598 98.9029 216.334 98.9029 226.783C98.9029 235.925 99.068 240.859 99.3155 240.859C99.5631 240.859 99.7282 241.186 99.7282 241.585C99.7282 241.984 99.9345 242.311 100.141 242.311C100.388 242.311 100.553 242.492 100.553 242.746C100.553 243.326 102.658 245.213 103.318 245.213C103.607 245.213 103.854 245.322 103.854 245.503C103.854 245.902 105.876 246.591 107.898 246.882C109.466 247.099 109.631 247.063 109.631 246.374C109.631 245.612 108.888 245.213 107.527 245.213C106.371 245.213 104.432 244.197 103.112 242.891C102.74 242.528 102.163 242.02 101.915 241.766C101.626 241.476 101.379 241.004 101.379 240.714C101.379 240.388 101.214 240.134 100.966 240.134C100.718 240.134 100.553 235.163 100.553 225.985V211.872L108.104 211.691C115.738 211.546 120.772 211.038 125.434 210.022C129.107 209.187 130.51 208.825 131.294 208.571C131.748 208.425 132.862 208.099 133.769 207.845C138.473 206.575 150.687 201.532 152.131 200.226C152.255 200.118 152.833 199.827 153.493 199.537C154.112 199.247 154.607 198.884 154.607 198.703C154.607 198.557 154.854 198.412 155.143 198.412C155.391 198.412 156.175 198.013 156.835 197.505C157.495 196.997 158.155 196.598 158.279 196.598C158.403 196.598 158.981 196.236 159.558 195.8C160.136 195.329 161.333 194.494 162.24 193.914C164.345 192.571 174.825 183.248 174.825 182.74C174.825 182.522 175.155 182.087 175.568 181.76C175.981 181.434 176.765 180.599 177.301 179.91C177.879 179.221 178.621 178.314 179.034 177.951C179.447 177.552 179.777 177.044 179.777 176.79C179.777 176.536 179.9 176.282 180.107 176.209C180.85 175.919 186.791 166.45 186.791 165.543C186.791 165.253 186.998 165.035 187.204 165.035C187.451 165.035 187.617 164.709 187.617 164.31C187.617 163.911 187.823 163.584 188.029 163.584C188.277 163.584 188.442 163.258 188.442 162.859C188.442 162.459 188.607 161.806 188.854 161.407C189.102 161.008 189.432 160.355 189.68 159.956C189.927 159.557 190.092 158.904 190.092 158.541C190.092 158.142 190.299 157.707 190.505 157.598C190.752 157.489 190.917 156.909 190.917 156.292C190.917 155.711 191.124 155.24 191.33 155.24C191.578 155.24 191.743 154.696 191.743 154.006C191.743 153.317 191.949 152.628 192.155 152.519C192.403 152.41 192.568 151.648 192.568 150.85C192.568 150.088 192.733 149.435 192.939 149.435C193.269 149.435 193.393 148.855 194.301 142.723C194.549 140.873 194.796 119.105 194.879 82.9348L195.044 26.0849H158.403C130.468 26.0849 121.638 25.9761 121.267 25.6496C120.937 25.3593 120.772 23.9807 120.772 21.8402V18.4662L110.25 9.21499C104.473 4.13586 99.5631 4.3031e-06 99.3981 4.3031e-06C99.233 0.0362838 94.3228 4.28098 88.5049 9.46894ZM98.9029 36.5697C98.9029 60.2602 98.7791 69.6566 98.449 69.838C98.2015 69.9831 94.1165 66.6454 88.7524 61.8928L79.5097 53.7299V36.9325C79.5097 27.645 79.6748 19.8449 79.8811 19.5546C80.7476 18.2849 97.5413 3.70051 98.2015 3.66423C98.8617 3.59167 98.9029 5.36936 98.9029 36.5697ZM110.085 11.5369L119.121 19.4821V36.7511V54.0201L110.044 62.0016C105.051 66.3914 100.842 69.9831 100.76 69.9831C100.636 69.9831 100.553 55.0359 100.553 36.7874C100.553 18.5388 100.677 3.59167 100.801 3.59167C100.966 3.59167 105.134 7.18334 110.085 11.5369ZM77.7767 41.2497L77.8592 54.7457L88.3811 63.9244L98.9029 73.1031V76.9487C98.9029 79.1981 98.7379 80.9032 98.4903 81.0483C98.2427 81.1934 91.1044 75.1348 82.6044 67.6612C74.0631 60.1513 66.7597 53.875 66.3471 53.6936C65.8932 53.4759 59.0437 53.3308 49.2233 53.2945H32.8835V68.024V82.7534L35.2767 84.8939C36.5558 86.0912 38.3714 87.6875 39.2379 88.413C45.5922 93.6736 66.7185 112.539 66.7185 112.974C66.7185 113.337 66.2646 113.446 64.8617 113.301C63.0049 113.156 62.7573 112.974 49.801 101.546C42.5388 95.161 36.432 89.9368 36.2257 89.9368C36.0194 89.9368 35.8956 96.068 35.9369 104.956L35.9782 120.012L51.3689 133.508C59.7864 140.946 66.7185 147.222 66.7185 147.44C66.7185 147.657 65.9345 147.875 64.9854 147.875C63.335 147.948 63.0874 147.803 59.1675 144.429C53.9272 139.966 44.1068 131.259 41.7136 129.01C40.682 128.067 39.6917 127.305 39.4854 127.305C39.2379 127.305 39.0728 132.565 39.0728 141.163V155.058L53.9684 168.192L68.8641 181.361H81.1602H93.4151L95.8083 179.329C97.1699 178.205 98.3665 177.479 98.5728 177.661C98.7379 177.806 98.8617 185.207 98.8204 194.095L98.6966 210.203L91.8884 210.167C84.8738 210.167 82.5218 209.913 73.9393 208.389C72.0825 208.063 69.483 207.446 68.5752 207.083C68.1214 206.938 66.2646 206.358 64.449 205.85C60.6529 204.761 49.7597 200.19 48.4393 199.138C47.9854 198.739 47.3252 198.412 47.0364 198.412C46.7476 198.412 46.5 198.231 46.5 198.05C46.5 197.832 46.2112 197.687 45.8811 197.687C45.551 197.687 45.2621 197.505 45.2621 197.324C45.2621 197.106 44.9733 196.961 44.6432 196.961C44.3131 196.961 44.0243 196.78 44.0243 196.598C44.0243 196.381 43.7354 196.236 43.4053 196.236C43.0752 196.236 42.7864 196.09 42.7864 195.945C42.7864 195.8 42.25 195.401 41.5898 195.038C40.9296 194.712 39.8155 193.95 39.0728 193.333C38.3301 192.753 37.6286 192.245 37.4636 192.245C37.0922 192.245 33.1311 188.835 29.2937 185.134C24.7549 180.817 24.5898 180.672 23.3932 179.112C22.8155 178.35 22.2379 177.733 22.0728 177.733C21.8665 177.733 21.7427 177.479 21.7427 177.189C21.7427 176.899 21.5777 176.645 21.3301 176.645C21.1238 176.645 20.9175 176.391 20.9175 176.101C20.9175 175.81 20.7524 175.556 20.5049 175.556C20.2985 175.556 20.0922 175.302 20.0922 175.012C20.0922 174.722 19.9272 174.468 19.7209 174.468C19.5146 174.468 19.267 174.178 19.1432 173.815C18.8131 172.98 17.4927 171.058 17.1214 170.913C16.915 170.84 16.7913 170.477 16.7913 170.078C16.7913 169.715 16.6262 169.389 16.3786 169.389C16.1723 169.389 15.966 169.062 15.966 168.663C15.966 168.264 15.8422 167.938 15.6772 167.938C15.3058 167.938 14.3155 166.16 14.3155 165.507C14.3155 165.253 14.1505 165.035 13.9029 165.035C13.6966 165.035 13.4903 164.781 13.4903 164.491C13.4903 164.201 13.3252 163.657 13.1189 163.294C10.1893 158.432 7.21845 148.274 6.10437 139.204C5.60922 135.431 5.44417 29.1687 5.89806 28.1166C6.14563 27.5724 9.57039 27.5361 41.9199 27.6087L77.6529 27.7175L77.7767 41.2497ZM193.187 82.4995C193.146 124.366 193.022 138.152 192.65 140.909C192.362 142.905 192.032 145.481 191.908 146.605C191.784 147.766 191.495 148.71 191.289 148.71C191.083 148.71 190.917 149.363 190.917 150.124C190.917 150.923 190.752 151.684 190.505 151.793C190.299 151.902 190.092 152.591 190.092 153.281C190.092 153.97 189.927 154.514 189.68 154.514C189.473 154.514 189.267 154.986 189.267 155.566C189.267 156.183 189.102 156.764 188.854 156.872C188.648 156.981 188.442 157.417 188.442 157.816C188.442 158.178 188.277 158.831 188.029 159.231C187.823 159.63 187.451 160.283 187.204 160.682C186.998 161.081 186.791 161.734 186.791 162.133C186.791 162.532 186.626 162.859 186.379 162.859C186.172 162.859 185.966 163.185 185.966 163.584C185.966 163.983 185.801 164.31 185.553 164.31C185.347 164.31 185.141 164.527 185.141 164.818C185.141 165.108 184.728 166.051 184.233 166.922C183.243 168.663 178.869 175.266 178.539 175.556C178.415 175.665 177.879 176.354 177.301 177.08C176.723 177.842 176.146 178.459 175.981 178.459C175.774 178.459 175.65 178.676 175.65 178.967C175.65 179.221 175.155 179.91 174.495 180.49C173.876 181.071 172.927 182.123 172.35 182.812C170.947 184.554 166.325 188.544 159.6 193.769C158.898 194.349 158.155 194.784 157.99 194.784C157.825 194.784 157.041 195.292 156.257 195.873C155.473 196.453 154.566 196.961 154.318 196.961C154.029 196.961 153.782 197.106 153.782 197.251C153.782 197.433 153.286 197.796 152.667 198.086C152.007 198.376 151.43 198.666 151.306 198.775C150.893 199.138 146.85 201.024 142.847 202.766C137.854 204.87 136.493 205.378 133.563 206.212C132.325 206.575 130.964 206.974 130.592 207.156C130.18 207.337 129.478 207.482 129.066 207.482C128.612 207.482 128.117 207.627 127.993 207.845C127.869 208.026 127.002 208.208 126.136 208.208C125.269 208.208 124.403 208.353 124.279 208.571C124.155 208.752 123.248 208.933 122.257 208.933C121.308 208.933 120.359 209.079 120.112 209.26C119.617 209.732 115.697 210.022 107.485 210.239L100.553 210.421V193.914C100.553 184.808 100.677 177.37 100.884 177.37C101.049 177.37 102.163 178.277 103.4 179.366L105.587 181.361H117.677H129.808L144.704 168.3L159.6 155.24L159.558 141.381C159.558 133.762 159.476 127.486 159.393 127.377C159.311 127.305 153.947 131.912 147.468 137.608C136.493 147.295 135.626 147.984 134.265 147.984C131.087 147.984 130.386 148.71 150.563 130.933L163.272 119.795L163.231 104.848C163.231 95.9955 163.066 89.9368 162.818 89.9368C162.612 89.9368 156.505 95.161 149.243 101.546C141.981 107.931 135.791 113.156 135.502 113.192C135.255 113.192 134.306 113.264 133.481 113.337C132.614 113.41 131.913 113.337 131.913 113.156C131.913 112.974 139.711 105.972 149.243 97.628L166.573 82.4632V68.0965C166.573 55.3262 166.49 53.6936 165.913 53.5122C165.541 53.4034 157.949 53.2945 148.995 53.2945H132.738L118.667 65.6295C110.91 72.4138 104.432 77.9646 104.226 77.9646C104.019 77.9646 103.854 78.146 103.854 78.3274C103.854 78.7264 101.172 81.2297 100.76 81.2297C100.636 81.2297 100.553 79.3069 100.553 76.9487V72.6678L110.663 63.8156L120.772 54.9271V41.7577C120.772 31.7445 120.896 28.4794 121.308 28.0803C121.721 27.645 127.044 27.5724 157.495 27.645L193.187 27.7175V82.4995ZM82.233 69.7654L98.9029 84.386V86.0912V87.7963L92.7136 93.2019C89.3301 96.2131 86.318 98.6439 86.0291 98.6439C85.534 98.6439 80.5825 94.4717 71.7524 86.5628C69.0704 84.2046 65.4806 81.012 63.7063 79.4883C59.4563 75.8604 53.0607 70.2008 48.1092 65.7384C45.9223 63.7793 42.5388 60.8407 40.5583 59.1718C38.6189 57.5392 37.0097 56.0518 37.0097 55.8704C37.0097 55.689 36.7621 55.435 36.5146 55.3625C36.2257 55.2536 42.6214 55.1448 50.75 55.1448L65.5218 55.1085L82.233 69.7654ZM162.405 55.7253C161.374 56.8136 115.614 96.975 114.211 98.0271L112.85 99.0067L106.701 93.5647L100.553 88.0865V86.0549V83.987L116.976 69.5477L133.357 55.1085H148.17C161.951 55.1085 162.942 55.1448 162.405 55.7253ZM59.7039 78.2911C73.3204 90.2633 84.4612 100.168 84.4612 100.313C84.4612 100.712 70.4733 112.793 70.0194 112.793C69.8131 112.793 61.767 105.827 52.1117 97.3015L34.534 81.8102V69.1849C34.534 62.2556 34.6165 56.5597 34.7403 56.5597C34.8641 56.5597 46.0874 66.3551 59.7039 78.2911ZM164.51 69.2938L164.468 81.7376L146.808 97.2652C137.07 105.791 129.024 112.793 128.859 112.793C128.735 112.793 125.476 110.036 121.638 106.662C114.954 100.821 114.665 100.494 115.243 99.7685C116.233 98.535 164.18 56.4871 164.386 56.6685C164.468 56.7774 164.551 62.437 164.51 69.2938ZM98.9029 100.168C98.9029 104.884 98.7791 109.02 98.6553 109.346C98.449 109.818 97.9952 109.564 96.3859 108.113C95.2719 107.097 94.2816 106.263 94.1578 106.263C93.7039 106.263 87.7621 100.784 87.7621 100.349C87.7621 99.8774 96.2209 92.1135 96.7573 92.1135C96.9223 92.1135 97.335 91.787 97.6651 91.388C98.0777 90.88 98.3252 90.8075 98.5728 91.134C98.7379 91.3517 98.9029 95.4513 98.9029 100.168ZM106.619 95.7415C109.177 98.0271 111.282 100.095 111.282 100.349C111.282 100.748 101.255 109.89 100.76 109.89C100.636 109.89 100.553 105.537 100.553 100.24C100.553 91.134 100.595 90.5898 101.255 91.0614C101.667 91.3517 104.061 93.4559 106.619 95.7415ZM66.1408 114.97C69.6481 114.97 69.8544 115.006 70.6384 115.949C71.0922 116.457 72.2063 117.509 73.0728 118.198C77.8592 122.044 87.7621 131.005 87.7621 131.477C87.7621 132.057 70.7209 147.258 70.0607 147.258C69.8131 147.258 62.4685 140.982 53.7209 133.291L37.835 119.359V106.698C37.835 99.7322 37.9175 93.9638 38.0413 93.855C38.1651 93.7824 43.6942 98.4625 50.3786 104.34L62.4685 114.97H66.1408ZM161.209 106.625V119.323L145.323 133.291C136.575 140.982 129.272 147.258 129.024 147.258C128.405 147.258 110.786 131.694 110.951 131.332C111.117 130.86 121.968 121.137 122.299 121.137C122.422 121.137 124.114 119.759 126.012 118.053L129.437 114.97H132.944H136.451L141.939 110.144C144.993 107.532 148.541 104.449 149.903 103.324C151.223 102.199 154.153 99.6234 156.34 97.5917C158.568 95.5964 160.549 93.9275 160.796 93.9275C161.085 93.9275 161.209 98.2085 161.209 106.625ZM92.7136 107.315L98.9029 112.72V117.473V122.226L94.4053 126.216C91.8884 128.393 89.784 130.207 89.6602 130.207C89.3301 130.207 71.6699 114.534 71.6699 114.28C71.6699 114.135 73.1966 112.72 75.0947 111.088C76.9515 109.455 80.0461 106.734 81.9854 105.029C83.9248 103.36 85.7403 101.945 85.9879 101.945C86.2767 101.909 89.2888 104.34 92.7136 107.315ZM118.75 106.408C121.556 108.875 124.692 111.632 125.641 112.539L127.456 114.171L118.42 122.189L109.384 130.243L104.968 126.47L100.553 122.733V117.618V112.466L106.454 107.206C109.672 104.34 112.602 101.945 112.973 101.945C113.303 101.909 115.903 103.941 118.75 106.408ZM98.9029 131.477C98.9029 135.649 98.7791 137.463 98.449 137.463C98.2015 137.463 96.4272 136.084 94.5704 134.379L91.1456 131.332L94.2816 128.429C98.9029 124.257 98.9029 124.257 98.9029 131.477ZM104.267 128.284C106.083 129.844 107.568 131.259 107.568 131.477C107.568 131.803 101.131 137.463 100.76 137.463C100.636 137.463 100.553 134.778 100.553 131.477C100.553 128.175 100.636 125.491 100.76 125.491C100.884 125.491 102.451 126.76 104.267 128.284ZM65.8107 149.435H69.483L83.6772 161.952C91.4757 168.845 97.9126 174.613 97.9952 174.758C98.0364 174.903 96.7985 176.137 95.2306 177.479L92.3835 179.91H81.2427H70.1432L55.6189 167.176L41.1359 154.442V143.086C41.1359 136.882 41.2597 131.694 41.3835 131.549C41.5073 131.44 46.2524 135.395 51.9053 140.402L62.1384 149.435H65.8107ZM157.908 142.832V154.369L151.801 159.811C148.417 162.786 144.786 165.979 143.631 166.886C142.517 167.829 140.206 169.86 138.473 171.42C136.74 173.017 133.852 175.556 132.036 177.08L128.735 179.91H117.718H106.743L103.813 177.407L100.925 174.94L102.08 173.742C102.699 173.089 109.136 167.357 116.357 161.008L129.519 149.435H133.15H136.823L147.056 140.365C152.667 135.395 157.413 131.332 157.619 131.295C157.784 131.295 157.908 136.483 157.908 142.832ZM98.9029 156.546C98.9029 166.849 98.7791 172.291 98.4903 172.291C97.9539 172.291 71.6699 149.181 71.6699 148.746C71.6699 148.31 88.7112 133.254 89.4539 133.037C89.784 132.928 91.8471 134.452 94.4879 136.81L98.9029 140.764V156.546ZM127.374 148.855C127.374 149.109 101.09 172.291 100.76 172.291C100.636 172.291 100.553 165.072 100.553 156.219L100.595 140.184L103.153 137.826C104.556 136.52 106.536 134.851 107.485 134.089L109.26 132.71L118.296 140.655C123.289 145.045 127.374 148.71 127.374 148.855Z" fill="white"/>
<path d="M435.024 42.3015C434.859 42.628 434.653 44.8048 434.529 47.1267C434.405 49.4123 434.116 52.2421 433.869 53.403C433.621 54.564 433.539 55.5798 433.662 55.6886C433.786 55.8337 434.405 55.8337 434.983 55.6886C435.973 55.4709 436.014 55.3258 436.014 52.9314C436.014 51.4802 436.179 50.3918 436.427 50.3918C436.674 50.3918 436.84 50.029 436.84 49.5574C436.84 48.5779 438.284 47.0904 439.852 46.4736C441.543 45.8206 458.461 45.8569 459.204 46.5099C459.657 46.909 459.699 51.19 459.534 69.6925C459.327 92.0406 459.327 92.4397 458.461 93.4555C457.182 94.9793 455.573 95.5235 452.024 95.6686C449.177 95.8137 448.806 95.8863 448.806 96.503C448.806 96.8658 449.053 97.1923 449.342 97.1923C456.315 97.2649 476.616 97.156 476.781 97.0472C476.864 96.9384 476.864 96.6119 476.74 96.2853C476.575 95.9225 475.915 95.7411 474.801 95.7411C472.49 95.7411 469.024 94.3988 469.024 93.5281C469.024 93.129 468.859 92.8388 468.653 92.8388C467.951 92.8388 467.827 89.2834 467.745 68.2776C467.662 51.5528 467.745 47.0541 468.199 46.5825C468.611 46.1108 470.056 46.0383 477.153 46.0383C486.148 46.0383 487.221 46.2197 488.5 47.9248C489.16 48.7955 490.068 52.75 490.068 54.7091C490.068 55.6886 490.191 55.87 490.893 55.7612C491.388 55.6886 491.759 55.5435 491.718 55.3621C491.718 55.217 491.718 52.097 491.718 48.3965C491.718 42.5917 491.636 41.6848 491.099 41.6848C490.728 41.6848 490.068 42.0113 489.573 42.4103C488.706 43.1359 488.087 43.1359 463.454 43.1359C438.82 43.1359 438.201 43.1359 437.335 42.4103C436.262 41.5034 435.354 41.4671 435.024 42.3015Z" fill="white"/>
<path d="M224.422 43.7172C223.968 44.1526 224.009 44.2614 224.628 44.4428C225.041 44.5517 225.701 44.8056 226.072 44.987C226.485 45.1684 227.187 45.3135 227.64 45.3135C228.094 45.3135 228.837 45.6038 229.332 45.9303C231.395 47.4903 231.354 47.055 231.354 70.2012C231.354 91.6787 231.354 91.8601 230.446 93.2387C229.456 94.835 227.352 95.742 224.752 95.742C223.39 95.742 223.102 95.8508 223.102 96.4676C223.102 96.9029 223.39 97.1932 223.844 97.1932C224.463 97.2294 246.332 97.1932 247.776 97.1932C248.189 97.1932 248.189 97.0118 247.859 96.4676C247.611 96.0685 246.992 95.742 246.456 95.742C244.393 95.742 240.886 94.2183 240.844 93.3113C240.844 93.0936 240.679 92.8396 240.432 92.7671C240.143 92.6945 239.854 78.2553 240.019 71.8701C240.019 71.5436 243.774 71.4347 257.349 71.4347H274.679V82.1372C274.679 88.087 274.514 92.8396 274.308 92.8396C274.102 92.8396 273.854 93.1661 273.73 93.5652C273.441 94.6173 270.842 95.4518 267.252 95.7057C264.818 95.8871 264.157 96.0685 264.034 96.5401C263.951 96.8667 264.199 97.1932 264.611 97.2657C265.024 97.302 271.42 97.3383 278.888 97.2657C291.514 97.1932 292.463 97.1206 292.339 96.5401C292.257 96.0685 291.597 95.8508 289.616 95.6694C285.614 95.2704 284.541 94.5448 283.386 91.3522C282.684 89.4294 282.767 50.7555 283.468 48.6513C284.046 46.9098 285.779 45.3135 287.017 45.3135C287.47 45.3135 287.966 45.1321 288.089 44.9507C288.213 44.7331 288.873 44.588 289.575 44.588C290.483 44.588 290.771 44.4066 290.771 43.8624C290.771 43.1368 290.483 43.1368 277.98 43.1368C265.478 43.1368 265.189 43.1368 265.189 43.8624C265.189 44.5154 265.478 44.588 267.417 44.588C268.655 44.588 269.81 44.7331 269.934 44.9507C270.058 45.1321 270.636 45.3135 271.213 45.3135C271.75 45.3135 272.204 45.4587 272.204 45.6401C272.204 45.8215 272.575 46.1117 273.029 46.2205C273.483 46.3294 273.854 46.6922 273.854 46.9824C273.854 47.2726 274.06 47.4903 274.267 47.4903C274.514 47.4903 274.679 51.1908 274.679 57.83C274.679 64.4691 274.514 68.1696 274.267 68.1696C266.757 68.2422 240.267 68.1333 240.143 68.0245C239.771 67.698 240.06 48.0345 240.432 47.9257C240.679 47.8531 240.844 47.4903 240.844 47.1275C240.844 46.7647 241.216 46.3294 241.67 46.2205C242.123 46.1117 242.495 45.8215 242.495 45.6401C242.495 45.4587 242.949 45.3135 243.526 45.3135C244.104 45.3135 244.558 45.1321 244.558 44.9507C244.558 44.7331 245.259 44.588 246.126 44.588C247.9 44.588 248.313 44.3703 247.983 43.6447C247.653 42.8828 225.206 42.9191 224.422 43.7172Z" fill="white"/>
<path d="M303.027 43.3899C302.201 44.0792 302.82 44.5871 304.595 44.5871C305.626 44.5871 306.451 44.7323 306.451 44.9499C306.451 45.1313 306.988 45.3127 307.648 45.3127C308.35 45.3127 309.216 45.6755 309.876 46.256L310.99 47.1993L311.155 62.872C311.32 78.581 311.568 82.9345 312.269 83.5876C312.476 83.769 312.641 84.2769 312.641 84.7122C312.641 85.1839 312.847 85.6555 313.053 85.7643C313.301 85.8732 313.466 86.3811 313.466 86.889C313.466 87.3606 313.631 87.7597 313.837 87.7597C314.044 87.7597 314.291 88.0499 314.415 88.3764C315.612 91.6416 321.595 96.1765 327.124 97.9179C336.49 100.929 348.539 99.224 354.646 93.9998C357.74 91.3151 360.918 86.8527 360.918 85.1839C360.918 84.8211 361.083 84.4583 361.289 84.3494C362.073 83.9141 362.279 80.5401 362.444 65.2664C362.527 55.6886 362.733 49.376 362.981 49.1583C363.228 48.9407 363.393 48.5779 363.393 48.2876C363.393 47.5621 365.786 45.7118 367.066 45.4578C367.643 45.349 368.468 45.1313 368.84 44.9137C369.252 44.7323 370.036 44.5871 370.614 44.5871C371.357 44.5871 371.646 44.4057 371.646 43.8615C371.646 43.136 371.357 43.136 359.886 43.136C348.415 43.136 348.126 43.136 348.126 43.8615C348.126 44.442 348.415 44.5871 349.529 44.5871C350.313 44.5871 351.097 44.7323 351.221 44.9499C351.345 45.1313 352.046 45.3127 352.748 45.3127C354.398 45.3127 356.172 46.4737 357.08 48.1425C357.74 49.376 357.823 50.8998 357.823 65.4478C357.823 77.7828 357.699 81.7373 357.286 82.862C355.347 87.9048 352.129 91.3514 347.714 93.1291C341.07 95.7775 335.335 95.5961 329.146 92.4397C327.33 91.5328 323.08 87.6509 322.172 86.0546C321.141 84.2043 320.233 81.9187 319.862 79.9959C319.449 77.7466 319.573 49.63 320.027 48.2876C320.522 46.8365 322.379 45.3127 323.699 45.3127C324.194 45.3127 324.607 45.1313 324.607 44.9499C324.607 44.7323 325.473 44.5871 326.505 44.5871C328.073 44.5871 328.362 44.4783 328.155 44.0067C328.032 43.6801 327.908 43.3536 327.908 43.2811C327.908 43.0271 303.316 43.136 303.027 43.3899Z" fill="white"/>
<path d="M382.621 43.7165C382.497 44.043 382.374 44.3695 382.374 44.4421C382.374 44.5146 383.281 44.5872 384.395 44.5872C385.551 44.5872 386.582 44.7323 386.706 44.95C386.83 45.1314 387.366 45.3128 387.82 45.3128C388.315 45.3128 389.347 45.8932 390.09 46.6188L391.451 47.9612V70.4181C391.451 95.3784 391.575 94.1449 388.645 95.197C387.861 95.4872 386.046 95.7412 384.602 95.7412C382.25 95.7412 381.961 95.8138 381.961 96.4668C381.961 96.8659 382.25 97.1924 382.58 97.1924C383.694 97.1924 424.42 97.1924 425.616 97.1924C426.442 97.1924 426.854 96.9384 427.267 96.2128C427.514 95.6686 427.762 95.0156 427.762 94.7617C427.762 94.5077 427.968 94.29 428.175 94.29C428.422 94.29 428.587 94.0361 428.587 93.7458C428.587 93.4556 429.165 92.1858 429.825 90.9523C430.526 89.7188 431.063 88.5216 431.063 88.2314C431.063 87.9774 431.269 87.7597 431.476 87.7597C431.723 87.7597 431.888 87.5783 431.888 87.3969C431.888 86.8527 429.866 86.9616 429.165 87.542C428.835 87.8323 428.587 88.3402 428.587 88.6304C428.587 88.9569 428.422 89.2109 428.175 89.2109C427.968 89.2109 427.762 89.4286 427.762 89.6825C427.762 90.2993 425.121 92.8388 424.502 92.8388C424.255 92.8388 424.048 92.984 424.048 93.1291C424.048 93.2742 423.223 93.6007 422.192 93.8547C419.84 94.3989 403.046 94.4714 401.684 93.9272C399.704 93.1291 399.704 92.984 399.704 70.1279C399.704 56.1603 399.869 48.5416 400.116 48.3965C400.364 48.2877 400.529 47.8523 400.529 47.4532C400.529 46.5825 402.056 45.349 403.087 45.3128C403.459 45.3128 403.912 45.1314 404.036 44.95C404.16 44.7323 405.934 44.5872 407.997 44.5872C411.381 44.5872 411.67 44.5509 411.67 43.8616C411.67 43.136 411.381 43.136 397.269 43.136C384.519 43.136 382.827 43.2085 382.621 43.7165Z" fill="white"/>
<path d="M399.91 123.024C396.816 123.858 395.371 124.874 393.886 127.196C393.185 128.32 393.02 129.155 393.02 131.839C393.02 133.907 393.185 135.141 393.473 135.213C393.721 135.286 393.927 135.576 393.927 135.903C393.927 136.737 397.517 139.531 399.003 139.821C402.551 140.51 406.017 140.002 407.998 138.515C408.782 137.934 409.524 137.463 409.731 137.463C409.896 137.463 410.02 137.136 410.02 136.737C410.02 136.338 410.226 136.012 410.432 136.012C410.68 136.012 410.845 135.685 410.845 135.322C410.845 134.923 411.051 134.488 411.257 134.379C411.505 134.27 411.67 132.964 411.67 131.477C411.67 129.989 411.505 128.683 411.257 128.574C411.051 128.465 410.845 128.066 410.845 127.704C410.845 126.905 408.204 124.402 406.719 123.785C404.367 122.806 401.767 122.516 399.91 123.024ZM405.192 125.2C409.689 127.413 410.638 133.436 406.966 136.52C405.439 137.826 404.325 138.188 402.138 138.188C399.333 138.188 397.352 137.136 395.99 134.923C395.289 133.799 395.33 129.082 396.032 128.03C396.898 126.688 398.342 125.491 399.085 125.491C399.415 125.491 399.704 125.309 399.704 125.128C399.704 124.62 404.078 124.692 405.192 125.2Z" fill="white"/>
<path d="M228.467 131.44V139.639H229.705H230.943L230.86 131.548L230.736 123.494L229.622 123.385L228.467 123.277V131.44Z" fill="white"/>
<path d="M238.782 123.387C238.782 123.459 238.741 127.123 238.659 131.586L238.576 139.64H239.732H240.846V133.472C240.846 128.067 240.928 127.305 241.506 127.305C241.877 127.305 242.249 127.631 242.372 128.03C242.496 128.43 242.702 128.756 242.867 128.756C242.991 128.756 243.569 129.409 244.147 130.207C244.724 131.005 245.302 131.658 245.467 131.658C245.673 131.658 245.797 131.876 245.797 132.166C245.797 132.457 245.962 132.747 246.127 132.819C246.292 132.856 247.076 133.726 247.86 134.742C249.222 136.447 249.676 136.955 251.45 138.805C251.863 139.241 252.647 139.64 253.224 139.712L254.256 139.821L254.38 131.55L254.462 123.278L253.348 123.387L252.193 123.496V129.409C252.193 133.4 252.069 135.286 251.739 135.286C251.491 135.286 250.583 134.343 249.676 133.218C248.025 131.042 247.2 130.098 246.333 129.3C246.045 129.01 245.797 128.647 245.797 128.43C245.797 128.212 245.632 128.03 245.384 128.03C245.178 128.03 244.972 127.813 244.972 127.559C244.972 127.305 244.6 126.87 244.147 126.579C243.693 126.289 243.321 125.89 243.321 125.672C243.321 124.765 241.341 123.314 240.062 123.314C239.36 123.314 238.782 123.35 238.782 123.387Z" fill="white"/>
<path d="M260.238 124.039C260.238 124.692 260.527 124.764 263.127 124.764H266.015V132.201V139.639H267.253H268.491L268.573 132.274L268.697 124.945L271.709 124.837C274.35 124.728 274.68 124.655 274.68 124.039C274.68 123.349 274.35 123.313 267.459 123.313C260.527 123.313 260.238 123.349 260.238 124.039Z" fill="white"/>
<path d="M280.003 123.567C280.003 123.748 279.962 127.412 279.92 131.73L279.838 139.639H286.151C292.134 139.639 292.423 139.602 292.423 138.913C292.423 138.224 292.134 138.187 287.76 138.187C284.666 138.187 282.933 138.042 282.602 137.752C282.066 137.281 281.942 133.544 282.437 132.854C282.644 132.564 284.335 132.383 287.471 132.31L292.217 132.201V131.294V130.387L287.265 130.206L282.314 130.025L282.19 127.92C282.025 124.873 282.19 124.764 287.719 124.764C292.134 124.764 292.423 124.728 292.423 124.039C292.423 123.349 292.134 123.313 286.234 123.313C282.85 123.313 280.044 123.422 280.003 123.567Z" fill="white"/>
<path d="M299.85 131.476V139.639H301.129H302.367L302.284 136.773C302.243 135.213 302.325 133.761 302.49 133.507C303.192 132.528 306.864 133.399 306.864 134.523C306.864 134.777 307.236 135.285 307.689 135.72C308.143 136.156 308.515 136.736 308.515 136.99C308.515 137.244 308.638 137.462 308.845 137.462C309.01 137.462 309.381 137.934 309.67 138.55C310.165 139.494 310.454 139.639 311.857 139.639C313.384 139.639 313.425 139.602 312.971 138.913C312.682 138.514 312.311 138.187 312.146 138.187C311.939 138.187 311.816 137.97 311.816 137.716C311.816 137.462 311.444 136.881 310.99 136.446C310.537 136.011 310.165 135.575 310.165 135.43C310.165 135.321 309.794 134.777 309.34 134.197L308.515 133.181L309.753 132.746C312.187 131.875 313.466 130.242 313.466 128.066C313.466 127.267 313.301 126.506 313.053 126.397C312.847 126.288 312.641 125.925 312.641 125.635C312.641 125.308 312.393 124.873 312.104 124.655C310.702 123.494 309.629 123.313 304.801 123.313H299.85V131.476ZM308.515 125.091C308.515 125.272 308.886 125.562 309.34 125.671C309.794 125.78 310.165 126.143 310.165 126.433C310.165 126.723 310.371 126.941 310.578 126.941C310.825 126.941 310.99 127.449 310.99 128.066C310.99 128.864 310.619 129.553 309.753 130.242C308.308 131.476 307.277 131.73 304.553 131.585L302.532 131.476L302.408 128.61C302.325 127.013 302.367 125.526 302.49 125.236C302.738 124.692 308.515 124.546 308.515 125.091Z" fill="white"/>
<path d="M320.48 131.476V139.639H321.718H322.956V133.217V126.796L323.781 127.594C324.235 128.029 324.607 128.465 324.607 128.537C324.607 128.755 325.597 129.879 326.587 130.75C326.835 131.04 327.082 131.403 327.082 131.548C327.082 131.73 327.413 132.201 327.825 132.6C328.238 132.963 329.022 133.87 329.558 134.56C330.095 135.249 330.879 136.156 331.291 136.519C331.704 136.918 332.034 137.389 332.034 137.534C332.034 138.26 334.138 139.639 335.211 139.639H336.366L336.284 131.585L336.201 123.494H335.046H333.891V129.372C333.891 132.637 333.767 135.285 333.561 135.285C333.107 135.285 332.034 134.342 332.034 133.943C332.034 133.798 331.539 133.145 330.961 132.564C330.383 131.947 329.599 131.04 329.228 130.46C328.857 129.916 328.403 129.48 328.238 129.48C328.073 129.48 327.908 129.226 327.908 128.936C327.908 128.646 327.784 128.392 327.578 128.392C327.413 128.392 326.835 127.739 326.257 126.941C325.679 126.143 325.143 125.49 325.019 125.49C324.896 125.49 324.442 124.982 324.07 124.401C323.451 123.531 323.039 123.313 321.883 123.313H320.48V131.476Z" fill="white"/>
<path d="M349.488 124.111C349.24 124.583 348.869 125.345 348.663 125.852C348.415 126.36 348.044 127.195 347.755 127.739C347.507 128.319 347.095 129.19 346.847 129.734C346.6 130.315 346.228 131.04 346.022 131.367C345.816 131.73 345.651 132.274 345.651 132.564C345.651 132.854 345.486 133.108 345.238 133.108C345.032 133.108 344.825 133.58 344.825 134.197C344.825 134.777 344.66 135.285 344.413 135.285C344.206 135.285 344 135.503 344 135.757C344 136.011 343.629 136.918 343.175 137.752C342.721 138.55 342.35 139.348 342.35 139.457C342.35 139.566 343.092 139.639 344 139.639C345.568 139.639 345.651 139.566 345.651 138.55C345.651 137.934 345.816 137.462 346.022 137.462C346.228 137.462 346.476 137.135 346.6 136.736C346.806 136.083 347.177 136.011 351.221 136.011C355.512 136.011 356.791 136.337 356.791 137.353C356.791 137.534 357.039 138.115 357.328 138.659C357.699 139.421 358.112 139.639 359.143 139.639H360.464L359.762 137.897C359.391 136.954 358.937 136.12 358.772 136.083C358.566 136.011 358.442 135.757 358.442 135.539C358.442 135.285 357.204 132.455 355.719 129.19L352.954 123.313H351.427C350.272 123.313 349.818 123.494 349.488 124.111ZM352.665 128.029C353.779 130.641 353.944 131.04 354.604 132.492C354.976 133.217 355.141 133.943 354.976 134.124C354.811 134.269 353.202 134.414 351.386 134.451C348.539 134.523 348.126 134.451 348.085 133.907C348.003 132.782 348.209 131.839 348.58 131.73C348.787 131.657 348.952 131.186 348.952 130.714C348.952 130.242 349.158 129.843 349.364 129.843C349.612 129.843 349.777 129.444 349.777 128.973C349.777 128.465 349.983 127.957 350.189 127.848C350.437 127.739 350.602 127.304 350.602 126.905C350.602 125.562 351.964 126.324 352.665 128.029Z" fill="white"/>
<path d="M362.568 124.039C362.568 124.692 362.857 124.764 365.415 124.764C367.644 124.764 368.304 124.909 368.51 125.345C368.634 125.671 368.758 129.009 368.758 132.782V139.639H369.913H371.027L370.986 132.854C370.986 129.081 371.11 125.744 371.316 125.381C371.605 124.909 372.224 124.764 374.328 124.764C376.721 124.764 377.01 124.692 377.01 124.039C377.01 123.349 376.721 123.313 369.789 123.313C362.857 123.313 362.568 123.349 362.568 124.039Z" fill="white"/>
<path d="M383.611 131.476V139.639H384.849H386.087V131.476V123.313H384.849H383.611V131.476Z" fill="white"/>
<path d="M417.447 131.476V139.639H418.685H419.923V133.471C419.923 129.952 420.088 127.304 420.294 127.304C420.501 127.304 422.027 128.9 423.637 130.823C425.246 132.782 427.02 134.85 427.556 135.467C428.134 136.047 428.588 136.7 428.588 136.881C428.588 137.063 428.918 137.462 429.331 137.788C429.743 138.115 430.197 138.659 430.362 138.986C430.527 139.457 431.064 139.639 432.095 139.639H433.539V131.476V123.313H432.302H431.064V129.299C431.064 132.6 430.94 135.285 430.816 135.285C430.486 135.285 429.743 134.56 428.588 133.108C428.01 132.419 427.35 131.585 427.061 131.294C425.576 129.662 421.037 124.147 420.872 123.748C420.748 123.494 419.964 123.313 419.056 123.313H417.447V131.476Z" fill="white"/>
<path d="M445.917 124.474C445.628 125.127 445.257 126.034 445.05 126.469C444.844 126.941 444.514 127.666 444.308 128.102C443.771 129.408 443.194 130.605 442.203 132.564C441.667 133.544 441.048 134.959 440.759 135.648C440.47 136.337 439.934 137.534 439.563 138.26L438.902 139.639H440.264C441.502 139.639 441.749 139.457 442.616 137.825L443.565 136.011H448.104C452.23 136.011 452.601 136.083 452.808 136.736C452.931 137.135 453.179 137.462 453.344 137.462C453.509 137.462 453.757 137.934 453.922 138.55C454.128 139.53 454.334 139.639 455.614 139.639C456.397 139.639 457.058 139.566 457.058 139.457C457.058 139.348 456.686 138.478 456.191 137.534C455.696 136.591 455.201 135.503 454.995 135.104C454.83 134.705 454.458 133.87 454.169 133.29C453.881 132.673 453.468 131.802 453.22 131.294C453.014 130.786 452.643 129.988 452.395 129.48C452.189 128.973 451.817 128.211 451.652 127.739C451.446 127.304 451.116 126.578 450.91 126.106C449.796 123.567 449.548 123.313 447.98 123.313C446.618 123.313 446.371 123.458 445.917 124.474ZM448.805 127.122C448.805 127.63 449.012 128.029 449.218 128.029C449.465 128.029 449.63 128.428 449.63 128.936C449.63 129.444 449.837 129.843 450.043 129.843C450.291 129.843 450.456 130.242 450.456 130.75C450.456 131.258 450.621 131.657 450.827 131.657C451.281 131.657 451.694 133.435 451.405 134.088C451.24 134.451 450.332 134.56 447.939 134.523C445.339 134.487 444.679 134.378 444.597 133.87C444.473 133.362 445.752 130.061 446.783 128.319C446.99 127.957 447.155 127.34 447.155 126.941C447.155 126.469 447.444 126.215 447.98 126.215C448.599 126.215 448.805 126.469 448.805 127.122Z" fill="white"/>
<path d="M463.248 131.476V139.639H469.025C474.513 139.639 474.801 139.602 474.801 138.913C474.801 138.224 474.513 138.187 470.923 138.187C468.777 138.187 466.755 138.079 466.384 137.97C465.806 137.788 465.724 136.773 465.724 130.533V123.313H464.486H463.248V131.476Z" fill="white"/>
<path d="M228.838 156.837C228.632 157.055 228.467 160.61 228.467 165.109V173.018H234.285H240.103L241.299 171.893C242.331 170.913 242.496 170.478 242.496 168.773C242.496 166.995 242.331 166.669 241.217 165.725L239.896 164.673L240.804 163.984C241.258 163.621 241.671 163.041 241.671 162.714C241.671 162.388 241.877 162.134 242.083 162.134C242.331 162.134 242.496 161.481 242.496 160.683C242.496 159.884 242.331 159.231 242.083 159.231C241.877 159.231 241.671 159.014 241.671 158.723C241.671 158.433 241.134 157.853 240.515 157.49C239.566 156.873 238.535 156.728 234.326 156.619C231.438 156.547 229.086 156.656 228.838 156.837ZM238.989 159.304C240.268 160.537 240.309 161.553 239.071 162.714C238.163 163.549 237.916 163.621 234.409 163.512L230.736 163.404L230.777 161.082C230.819 159.594 231.066 158.651 231.396 158.433C231.727 158.252 233.336 158.179 234.986 158.216C237.586 158.324 238.081 158.47 238.989 159.304ZM238.989 166.342C239.814 166.814 240.02 167.249 240.02 168.519C240.02 169.934 239.855 170.224 238.7 170.841C237.091 171.675 231.644 171.893 231.108 171.131C230.819 170.768 230.777 169.136 230.901 166.197C230.943 165.508 237.71 165.617 238.989 166.342Z" fill="white"/>
<path d="M248.56 156.583C248.395 156.691 248.271 159.485 248.271 162.75C248.271 169.426 248.56 170.55 250.788 172.038C253.099 173.525 255.286 173.96 258.051 173.38C260.403 172.872 262.713 171.53 262.713 170.659C262.713 170.405 262.92 170.115 263.208 170.042C263.827 169.861 264.157 157.49 263.538 156.691C263.25 156.256 263.002 156.256 262.424 156.546C261.764 156.909 261.64 157.744 261.434 163.04C261.31 167.321 261.063 169.208 260.733 169.317C260.444 169.389 260.238 169.679 260.238 169.933C260.238 170.224 259.866 170.55 259.412 170.659C258.958 170.768 258.587 171.058 258.587 171.24C258.587 171.82 254.089 171.602 252.975 170.986C251.036 169.825 250.747 168.809 250.747 162.569C250.747 157.598 250.665 156.728 250.087 156.546C249.262 156.256 248.89 156.256 248.56 156.583Z" fill="white"/>
<path d="M271.833 156.944C268.986 158.178 267.996 161.407 269.894 163.293C270.431 163.874 271.049 164.309 271.338 164.309C271.586 164.309 271.792 164.454 271.792 164.672C271.792 164.853 272.329 165.035 272.989 165.035C273.69 165.035 274.35 165.18 274.474 165.398C274.598 165.579 275.258 165.76 275.96 165.76C276.62 165.76 277.156 165.906 277.156 166.123C277.156 166.305 277.445 166.486 277.816 166.486C278.972 166.486 281.035 169.026 280.086 169.316C279.838 169.388 279.632 169.679 279.632 169.933C279.632 170.84 277.858 171.565 275.63 171.565C273.443 171.565 272.37 171.202 270.843 170.041C269.935 169.352 269.11 169.497 268.698 170.404C268.285 171.384 270.637 172.871 273.525 173.379C275.671 173.778 276.29 173.778 278.147 173.27C280.787 172.508 281.736 171.819 282.438 170.005C282.892 168.917 282.892 168.409 282.438 167.284C281.819 165.688 281.159 165.035 280.292 165.035C279.921 165.035 279.632 164.853 279.632 164.672C279.632 164.454 279.261 164.309 278.848 164.309C278.394 164.309 277.899 164.128 277.775 163.946C277.651 163.729 276.991 163.584 276.331 163.584C275.671 163.584 275.011 163.402 274.887 163.221C274.763 163.003 274.309 162.858 273.897 162.858C273.03 162.858 271.38 161.407 271.38 160.645C271.38 160.355 271.792 159.702 272.329 159.194C273.03 158.505 273.69 158.251 275.217 158.178C277.198 158.069 279.632 158.686 279.632 159.23C279.632 159.811 280.952 159.956 281.53 159.448C282.397 158.65 282.273 158.396 280.375 157.307C278.931 156.509 278.188 156.328 275.918 156.328C274.268 156.328 272.7 156.582 271.833 156.944Z" fill="white"/>
<path d="M299.974 156.583C299.561 156.728 299.438 158.687 299.438 164.855V172.945L300.469 173.09C301.005 173.199 301.583 173.199 301.707 173.09C301.831 172.981 301.913 170.188 301.872 166.923C301.872 163.658 301.913 160.9 302.037 160.828C302.161 160.719 302.78 161.263 303.399 162.025C304.059 162.787 304.925 163.73 305.338 164.093C305.709 164.492 306.039 164.927 306.039 165.109C306.039 165.254 306.617 165.907 307.277 166.56C307.979 167.177 308.515 167.866 308.515 168.084C308.515 168.301 308.887 168.737 309.34 169.027C309.794 169.317 310.166 169.753 310.166 170.006C310.166 170.26 310.372 170.478 310.578 170.478C310.826 170.478 310.991 170.623 310.991 170.841C310.991 171.675 312.848 173.018 313.962 173.018H315.117V164.891C315.117 156.402 315.076 156.22 313.384 156.619C312.724 156.764 312.641 157.381 312.641 162.714C312.641 165.979 312.518 168.664 312.394 168.664C311.981 168.664 310.991 167.648 310.991 167.249C310.991 167.032 310.826 166.85 310.578 166.85C310.372 166.85 310.166 166.669 310.166 166.487C310.166 166.27 309.712 165.689 309.134 165.181C308.556 164.673 308.103 164.129 308.103 163.984C308.103 163.803 307.566 163.113 306.865 162.46C306.204 161.771 305.627 161.118 305.627 160.973C305.627 160.828 305.379 160.501 305.132 160.247C304.719 159.885 302.821 157.708 302.12 156.764C301.954 156.547 300.428 156.438 299.974 156.583Z" fill="white"/>
<path d="M322.751 156.981C322.503 157.562 322.462 172.835 322.709 173.053C322.792 173.126 325.598 173.162 328.94 173.089C334.345 172.981 334.964 172.908 334.84 172.364C334.717 171.82 334.056 171.747 330.178 171.638C327.207 171.566 325.556 171.384 325.35 171.094C325.185 170.84 325.02 169.57 325.02 168.192V165.761H329.724C333.85 165.761 334.428 165.688 334.593 165.108C335.005 163.729 334.593 163.584 329.765 163.584H325.103L324.937 161.48C324.649 158.215 324.69 158.178 330.013 158.178C332.53 158.215 334.675 158.106 334.799 158.033C334.923 157.925 334.882 157.525 334.758 157.163C334.552 156.582 333.974 156.51 328.734 156.51C324.319 156.51 322.916 156.618 322.751 156.981Z" fill="white"/>
<path d="M344.62 156.944C343.176 157.634 342.351 158.323 342.351 158.831C342.351 159.049 342.144 159.557 341.856 159.956C340.989 161.189 342.64 164.309 344.166 164.309C344.538 164.309 344.826 164.454 344.826 164.672C344.826 164.853 345.28 165.035 345.817 165.035C346.394 165.035 346.972 165.18 347.096 165.398C347.22 165.579 347.88 165.76 348.581 165.76C349.242 165.76 349.778 165.905 349.778 166.123C349.778 166.305 350.108 166.486 350.521 166.486C351.428 166.486 353.079 167.756 353.079 168.481C353.079 169.461 352.171 170.767 351.14 171.166C349.902 171.674 346.188 171.674 345.858 171.202C345.734 170.985 345.322 170.839 344.95 170.839C344.579 170.839 343.96 170.513 343.547 170.078C342.887 169.388 342.722 169.352 342.144 169.86C340.7 171.166 342.103 172.363 346.394 173.415C350.067 174.322 354.688 172.472 355.348 169.787C355.843 167.828 354.523 165.035 353.12 165.035C352.873 165.035 352.666 164.853 352.666 164.672C352.666 164.454 352.212 164.309 351.635 164.309C351.057 164.309 350.603 164.128 350.603 163.946C350.603 163.729 350.191 163.584 349.695 163.584C348.293 163.584 345.941 162.749 344.95 161.878C343.96 161.044 343.671 159.956 344.414 159.956C344.661 159.956 344.826 159.738 344.826 159.484C344.826 159.194 345.28 158.795 345.858 158.577C347.632 157.851 350.149 158.069 352.089 159.049C353.574 159.81 353.904 159.883 354.317 159.411C355.059 158.613 354.564 157.888 352.708 157.053C350.644 156.146 346.436 156.074 344.62 156.944Z" fill="white"/>
<path d="M364.714 156.691C364.219 156.872 363.311 157.453 362.775 157.924C360.877 159.593 361.537 164.309 363.683 164.309C363.971 164.309 364.219 164.455 364.219 164.672C364.219 164.854 364.797 165.035 365.457 165.035C366.158 165.035 366.695 165.18 366.695 165.398C366.695 165.579 367.231 165.761 367.891 165.761C368.593 165.761 369.253 165.906 369.377 166.123C369.5 166.305 369.913 166.486 370.243 166.486C371.068 166.486 372.884 168.119 372.884 168.844C372.884 169.135 372.348 169.896 371.687 170.477C370.697 171.42 370.243 171.565 368.386 171.565C366.282 171.565 364.343 170.949 362.899 169.86C362.28 169.352 362.115 169.352 361.537 169.86C361.207 170.187 360.918 170.658 360.918 170.912C360.918 171.638 363.352 172.835 365.828 173.379C368.593 173.96 371.976 173.343 373.503 172.001C374.865 170.84 375.566 168.772 375.03 167.575C374.823 167.067 374.658 166.559 374.7 166.45C374.823 165.869 372.059 164.309 370.821 164.309C370.367 164.309 369.996 164.128 369.996 163.947C369.996 163.729 369.459 163.584 368.799 163.584C368.098 163.584 367.437 163.402 367.314 163.221C367.19 163.003 366.695 162.858 366.241 162.858C365.374 162.858 364.219 162.06 364.219 161.48C364.219 161.262 363.971 161.008 363.724 160.935C363.311 160.79 363.311 160.718 363.724 160.718C363.971 160.682 364.219 160.428 364.219 160.101C364.219 158.106 368.51 157.489 371.522 159.013C373.09 159.811 373.379 159.847 373.874 159.375C374.782 158.614 374.287 157.924 372.306 157.054C370.45 156.292 366.488 156.074 364.714 156.691Z" fill="white"/>
<path d="M394.505 156.655C392.896 157.271 391.452 159.339 391.452 161.008C391.452 162.242 391.699 162.75 392.855 163.765C393.721 164.563 394.629 165.035 395.289 165.035C395.867 165.035 396.486 165.18 396.609 165.398C396.733 165.579 397.393 165.761 398.054 165.761C398.714 165.761 399.374 165.906 399.498 166.123C399.622 166.305 400.034 166.486 400.364 166.486C401.396 166.486 402.262 167.502 402.304 168.844C402.345 170.622 400.942 171.529 398.136 171.565C395.867 171.565 394.794 171.239 393.35 170.078C392.236 169.135 391.534 169.207 391.204 170.296C391.039 170.804 390.998 171.275 391.08 171.348C394.175 173.343 396.898 173.996 399.952 173.416C402.716 172.871 404.449 171.42 404.862 169.425C405.192 167.72 404.119 165.398 402.923 165.108C402.51 165.035 402.18 164.817 402.18 164.636C402.18 164.455 401.726 164.31 401.19 164.31C400.612 164.31 400.034 164.128 399.91 163.947C399.787 163.729 399.291 163.584 398.838 163.584C398.425 163.584 397.724 163.439 397.311 163.294C396.94 163.112 396.073 162.75 395.372 162.459C394.464 162.06 394.092 161.625 394.01 160.79C393.721 158.323 398.466 157.199 401.52 159.049C403.335 160.137 403.5 160.137 404.119 159.23C404.573 158.614 404.449 158.396 403.129 157.525C401.85 156.655 401.19 156.509 398.508 156.437C396.774 156.364 394.959 156.473 394.505 156.655Z" fill="white"/>
<path d="M416.002 156.582C414.269 156.981 410.844 159.594 410.844 160.573C410.844 160.791 410.637 161.045 410.349 161.117C410.019 161.226 409.854 162.423 409.854 164.854C409.854 167.285 410.019 168.482 410.349 168.591C410.637 168.663 410.844 168.954 410.844 169.244C410.844 169.933 413.526 172.291 414.351 172.291C414.681 172.291 414.97 172.437 414.97 172.582C414.97 172.763 416.002 173.126 417.239 173.38C419.261 173.815 419.798 173.779 421.778 173.235C424.502 172.473 426.606 170.913 426.028 170.006C425.533 169.208 424.502 169.208 423.676 170.042C423.305 170.441 422.604 170.913 422.108 171.13C420.994 171.675 417.198 171.711 416.827 171.203C416.703 170.985 416.29 170.84 415.96 170.84C415.176 170.84 413.32 169.208 413.32 168.518C413.32 168.228 413.072 167.938 412.824 167.829C411.917 167.575 412.164 162.532 413.113 161.262C415.754 157.743 420.705 157.09 423.965 159.848C424.708 160.464 425.492 160.428 426.111 159.775C426.523 159.34 426.4 159.086 425.409 158.288C424.79 157.743 423.676 157.09 422.934 156.836C421.654 156.365 417.735 156.22 416.002 156.582Z" fill="white"/>
<path d="M432.713 164.673V173.018H433.951H435.147L435.271 169.353L435.395 165.689L440.511 165.725C443.359 165.762 445.793 165.871 445.999 165.979C446.164 166.088 446.329 167.721 446.329 169.607C446.329 172.981 446.329 173.018 447.32 173.018C447.856 173.018 448.393 172.8 448.475 172.546C448.599 172.328 448.723 168.809 448.764 164.782C448.846 158.288 448.805 157.345 448.186 156.801C447.691 156.402 447.278 156.293 446.866 156.547C446.371 156.801 446.206 157.671 446.164 160.138L446.123 163.404H440.594H435.065L435.147 160.392C435.23 157.2 434.9 156.329 433.497 156.329C432.754 156.329 432.713 156.764 432.713 164.673Z" fill="white"/>
<path d="M459.947 156.909C453.716 159.268 452.602 167.684 457.966 171.711C462.546 175.158 470.221 173.598 472.573 168.737C473.687 166.378 473.15 159.957 471.83 159.957C471.665 159.957 471.5 159.739 471.5 159.485C471.5 159.231 471.087 158.796 470.633 158.506C470.138 158.215 469.519 157.744 469.231 157.526C467.704 156.256 462.546 155.894 459.947 156.909ZM468.075 159.485C468.942 160.247 469.891 161.263 470.221 161.771C470.922 162.823 470.964 167.684 470.303 167.866C470.056 167.938 469.849 168.229 469.849 168.519C469.849 169.099 468.447 170.405 467.044 171.095C466.549 171.349 465.146 171.566 463.949 171.566C459.864 171.566 457.058 168.918 457.058 164.963C457.058 162.642 457.595 161.299 459.121 159.921C460.731 158.469 461.638 158.179 464.155 158.143C466.301 158.143 466.59 158.252 468.075 159.485Z" fill="white"/>
<path d="M483.59 156.836C481.898 157.526 480.454 158.759 479.299 160.573C478.556 161.662 478.391 162.532 478.35 164.927C478.35 166.813 478.556 168.119 478.845 168.373C479.134 168.627 479.34 169.026 479.34 169.317C479.34 170.296 482.6 172.582 484.952 173.235C486.973 173.779 487.51 173.815 489.367 173.38C490.563 173.126 491.884 172.727 492.337 172.509C493.658 171.856 496.257 169.28 496.257 168.591C496.257 168.264 496.464 167.865 496.67 167.756C496.918 167.648 497.083 166.45 497.083 165.108C497.083 161.879 495.556 159.158 492.998 157.635C491.471 156.728 490.687 156.546 488.046 156.437C485.901 156.365 484.498 156.474 483.59 156.836ZM491.636 159.231C495.969 162.278 495.391 168.881 490.604 171.167C489.449 171.675 485.736 171.675 484.621 171.167C483.507 170.623 482.063 169.353 481.444 168.373C480.825 167.357 480.867 162.315 481.527 161.335C483.012 158.977 484.828 158.106 487.84 158.251C489.779 158.324 490.646 158.542 491.636 159.231Z" fill="white"/>
<path d="M503.148 156.583C502.983 156.692 502.859 160.465 502.859 164.927V173.018H508.43C513.711 173.018 514 172.981 514 172.292C514 171.639 513.67 171.566 509.791 171.494L505.541 171.385L505.418 164.129C505.335 156.946 505.211 156.365 503.85 156.329C503.602 156.329 503.272 156.438 503.148 156.583Z" fill="white"/>
<path d="M289.121 164.855V173.018H290.359H291.597V164.855V156.692H290.359H289.121V164.855Z" fill="white"/>
</g>
<defs>
<filter id="filter0_d_241_709" x="0" y="0" width="518" height="255" filterUnits="userSpaceOnUse" color-interpolation-filters="sRGB">
<feFlood flood-opacity="0" result="BackgroundImageFix"/>
<feColorMatrix in="SourceAlpha" type="matrix" values="0 0 0 0 0 0 0 0 0 0 0 0 0 0 0 0 0 0 127 0" result="hardAlpha"/>
<feOffset dy="4"/>
<feGaussianBlur stdDeviation="2"/>
<feComposite in2="hardAlpha" operator="out"/>
<feColorMatrix type="matrix" values="0 0 0 0 0 0 0 0 0 0 0 0 0 0 0 0 0 0 0.25 0"/>
<feBlend mode="normal" in2="BackgroundImageFix" result="effect1_dropShadow_241_709"/>
<feBlend mode="normal" in="SourceGraphic" in2="effect1_dropShadow_241_709" result="shape"/>
</filter>
</defs>
</svg>
